<?xml version="1.0" encoding="UTF-8"?>
<svg xmlns="http://www.w3.org/2000/svg" id="Layer_2" data-name="Layer 2" viewBox="0 0 397.75 52.46">
  <defs>
    <style>
      .cls-1 {
        fill: #f58220;
      }

      .cls-2 {
        fill: #51247f;
      }
    </style>
  </defs>
  <g id="Layer_1-2" data-name="Layer 1">
    <g>
      <g>
        <path class="cls-2" d="M274.91,.51h5.18c1.33,0,2.35,.33,3.09,.97,.73,.65,1.1,1.57,1.1,2.77s-.37,2.1-1.1,2.77c-.73,.66-1.76,.99-3.09,.99h-3.35v5h-1.83V.51Zm4.98,6.03c1.75,0,2.63-.76,2.63-2.29s-.88-2.27-2.63-2.27h-3.16V6.54h3.16Z"></path>
        <path class="cls-2" d="M287.48,12.59c-.65-.37-1.14-.89-1.49-1.57-.35-.68-.52-1.47-.52-2.37s.17-1.71,.52-2.39c.35-.68,.84-1.2,1.49-1.57,.64-.37,1.39-.55,2.24-.55s1.6,.18,2.25,.55c.64,.37,1.14,.89,1.49,1.57,.35,.68,.52,1.48,.52,2.39s-.18,1.69-.52,2.37c-.35,.68-.85,1.2-1.49,1.57-.65,.37-1.39,.55-2.25,.55s-1.6-.18-2.24-.55Zm4.06-1.65c.42-.52,.63-1.28,.63-2.29s-.21-1.75-.64-2.28-1.03-.79-1.81-.79-1.38,.26-1.81,.79-.64,1.29-.64,2.28,.21,1.77,.63,2.29c.42,.52,1.03,.78,1.82,.78s1.4-.26,1.82-.78Z"></path>
        <path class="cls-2" d="M295.42,12.04l.55-1.29c.89,.69,1.92,1.03,3.11,1.03,.58,0,1.02-.1,1.33-.29,.31-.2,.46-.47,.46-.83,0-.31-.1-.55-.31-.73s-.56-.32-1.07-.44l-1.44-.32c-.77-.18-1.35-.47-1.74-.87s-.59-.91-.59-1.53c0-.78,.32-1.41,.95-1.9s1.46-.73,2.49-.73c.61,0,1.2,.1,1.76,.29,.55,.2,1.03,.47,1.44,.83l-.55,1.26c-.85-.67-1.73-1.01-2.64-1.01-.54,0-.97,.11-1.29,.32-.32,.21-.47,.5-.47,.87,0,.3,.1,.54,.29,.72,.2,.18,.51,.32,.93,.42l1.47,.34c.84,.19,1.46,.48,1.85,.88,.39,.4,.59,.92,.59,1.55,0,.78-.32,1.4-.95,1.85s-1.49,.68-2.56,.68c-1.5,0-2.7-.37-3.6-1.1Z"></path>
        <path class="cls-2" d="M309.33,11.7l-.09,1.37c-.3,.05-.6,.07-.92,.07-1.12,0-1.96-.28-2.51-.83-.55-.55-.83-1.35-.83-2.39V5.74h-1.69v-1.38h1.69V1.75h1.79v2.61h2.38v1.38h-2.38v4.12c0,1.27,.59,1.9,1.75,1.9,.27,0,.54-.02,.8-.05Z"></path>
        <path class="cls-2" d="M325.74,6.38v5.89c-.53,.27-1.2,.49-2,.65s-1.62,.24-2.45,.24c-1.27,0-2.36-.25-3.28-.76s-1.63-1.24-2.11-2.2c-.49-.96-.73-2.11-.73-3.44s.24-2.45,.73-3.42c.48-.96,1.18-1.7,2.08-2.21,.91-.51,1.97-.76,3.2-.76,.89,0,1.7,.13,2.45,.39,.75,.26,1.38,.64,1.9,1.13l-.66,1.35c-.59-.49-1.18-.83-1.75-1.05s-1.22-.32-1.92-.32c-1.35,0-2.38,.42-3.1,1.25-.72,.83-1.07,2.04-1.07,3.63s.37,2.85,1.1,3.68,1.81,1.25,3.21,1.25c.92,0,1.83-.14,2.73-.41v-3.51h-2.91v-1.38h4.58Z"></path>
        <path class="cls-2" d="M333.56,5.65l-1.08,.11c-.85,.08-1.46,.34-1.84,.78-.37,.44-.56,.99-.56,1.67v4.81h-1.79V4.36h1.74v1.51c.46-1.02,1.4-1.58,2.82-1.69l.59-.04,.12,1.51Z"></path>
        <path class="cls-2" d="M340.93,5.02c.56,.58,.84,1.46,.84,2.64v5.36h-1.72v-1.44c-.23,.51-.56,.89-1,1.16-.44,.27-.96,.4-1.55,.4s-1.09-.11-1.56-.35c-.47-.23-.84-.55-1.11-.97-.26-.41-.4-.87-.4-1.38,0-.63,.16-1.12,.49-1.48,.33-.36,.86-.62,1.62-.77,.75-.15,1.78-.23,3.1-.23h.41v-.52c0-.66-.14-1.14-.42-1.44s-.73-.44-1.36-.44c-.98,0-1.96,.3-2.95,.91l-.53-1.26c.46-.32,1.02-.58,1.68-.77,.66-.2,1.29-.29,1.89-.29,1.16,0,2.02,.29,2.58,.87Zm-1.52,6.13c.41-.44,.62-1.01,.62-1.71v-.46h-.32c-.92,0-1.63,.04-2.13,.12-.5,.08-.85,.22-1.06,.42s-.32,.48-.32,.84c0,.41,.15,.76,.45,1.04,.3,.28,.69,.42,1.16,.42,.65,0,1.18-.22,1.6-.66Z"></path>
        <path class="cls-2" d="M352.21,.51V13.02h-1.78v-1.49c-.26,.52-.64,.92-1.13,1.2-.5,.28-1.07,.42-1.72,.42-.75,0-1.41-.19-2-.57-.59-.38-1.04-.91-1.37-1.6-.32-.69-.49-1.47-.49-2.36s.16-1.69,.49-2.36c.33-.67,.78-1.19,1.36-1.56,.58-.37,1.25-.55,2.01-.55,.65,0,1.22,.14,1.71,.42,.49,.28,.87,.67,1.13,1.18V.51h1.79Zm-2.4,10.41c.42-.53,.63-1.29,.63-2.27s-.21-1.74-.63-2.27c-.42-.53-1.02-.8-1.8-.8s-1.39,.26-1.82,.79c-.43,.53-.65,1.27-.65,2.24s.22,1.73,.66,2.28,1.04,.83,1.81,.83,1.38-.27,1.8-.8Z"></path>
        <path class="cls-2" d="M362.3,4.36V13.02h-1.74v-1.4c-.27,.5-.65,.88-1.13,1.14s-1.01,.39-1.61,.39c-2.1,0-3.16-1.16-3.16-3.48V4.36h1.79v5.29c0,.7,.14,1.21,.43,1.54s.72,.5,1.31,.5c.7,0,1.26-.22,1.68-.67,.42-.45,.63-1.05,.63-1.79V4.36h1.79Z"></path>
        <path class="cls-2" d="M371.01,5.02c.56,.58,.84,1.46,.84,2.64v5.36h-1.72v-1.44c-.23,.51-.56,.89-1,1.16-.44,.27-.96,.4-1.55,.4s-1.09-.11-1.56-.35c-.47-.23-.84-.55-1.11-.97-.26-.41-.4-.87-.4-1.38,0-.63,.16-1.12,.49-1.48,.33-.36,.86-.62,1.62-.77,.75-.15,1.78-.23,3.1-.23h.41v-.52c0-.66-.14-1.14-.42-1.44s-.73-.44-1.36-.44c-.98,0-1.96,.3-2.95,.91l-.53-1.26c.46-.32,1.02-.58,1.68-.77,.66-.2,1.29-.29,1.89-.29,1.16,0,2.02,.29,2.58,.87Zm-1.52,6.13c.41-.44,.62-1.01,.62-1.71v-.46h-.32c-.92,0-1.63,.04-2.13,.12-.5,.08-.85,.22-1.06,.42s-.32,.48-.32,.84c0,.41,.15,.76,.45,1.04,.3,.28,.69,.42,1.16,.42,.65,0,1.18-.22,1.6-.66Z"></path>
        <path class="cls-2" d="M379.19,11.7l-.09,1.37c-.3,.05-.6,.07-.92,.07-1.12,0-1.96-.28-2.51-.83-.55-.55-.83-1.35-.83-2.39V5.74h-1.69v-1.38h1.69V1.75h1.79v2.61h2.38v1.38h-2.38v4.12c0,1.27,.59,1.9,1.75,1.9,.27,0,.54-.02,.8-.05Z"></path>
        <path class="cls-2" d="M387.97,8.99h-6.12c.13,1.83,1.04,2.75,2.73,2.75,.99,0,1.89-.32,2.7-.98l.55,1.26c-.4,.34-.9,.62-1.49,.82-.59,.2-1.19,.3-1.81,.3-1.38,0-2.48-.4-3.27-1.19-.8-.79-1.2-1.89-1.2-3.28,0-.89,.17-1.67,.52-2.36,.35-.69,.84-1.22,1.47-1.6,.63-.38,1.35-.57,2.15-.57,1.17,0,2.09,.38,2.76,1.14s1,1.8,1,3.14v.57Zm-5.36-2.88c-.41,.43-.66,1.05-.74,1.85h4.56c-.03-.8-.24-1.42-.61-1.85s-.89-.65-1.57-.65-1.23,.22-1.64,.65Z"></path>
        <path class="cls-2" d="M274.91,18.58h5.18c1.33,0,2.35,.33,3.09,.97,.73,.65,1.1,1.57,1.1,2.77s-.37,2.1-1.1,2.77c-.73,.66-1.76,.99-3.09,.99h-3.35v5h-1.83v-12.51Zm4.98,6.03c1.75,0,2.63-.76,2.63-2.29s-.88-2.27-2.63-2.27h-3.16v4.56h3.16Z"></path>
        <path class="cls-2" d="M291.36,23.72l-1.08,.11c-.85,.08-1.46,.34-1.84,.78-.37,.44-.56,.99-.56,1.67v4.81h-1.79v-8.66h1.74v1.51c.46-1.02,1.4-1.58,2.82-1.69l.59-.04,.12,1.51Z"></path>
        <path class="cls-2" d="M293.92,30.66c-.65-.37-1.14-.89-1.49-1.57-.35-.68-.52-1.47-.52-2.37s.17-1.71,.52-2.39c.35-.68,.84-1.2,1.49-1.57,.64-.37,1.39-.55,2.24-.55s1.6,.18,2.25,.55c.64,.37,1.14,.89,1.49,1.57,.35,.68,.52,1.48,.52,2.39s-.18,1.69-.52,2.37c-.35,.68-.85,1.2-1.49,1.57-.65,.37-1.39,.55-2.25,.55s-1.6-.18-2.24-.55Zm4.06-1.65c.42-.52,.63-1.28,.63-2.29s-.21-1.75-.64-2.28-1.03-.79-1.81-.79-1.38,.26-1.81,.79-.64,1.29-.64,2.28,.21,1.77,.63,2.29c.42,.52,1.03,.78,1.82,.78s1.4-.26,1.82-.78Z"></path>
        <path class="cls-2" d="M310.46,22.42v7.97c0,1.32-.35,2.32-1.06,3s-1.74,1.01-3.11,1.01c-.75,0-1.45-.1-2.12-.29-.67-.2-1.26-.48-1.78-.84l.55-1.29c.57,.37,1.12,.63,1.64,.79,.53,.16,1.09,.24,1.69,.24,1.62,0,2.43-.82,2.43-2.47v-1.37c-.25,.52-.63,.93-1.14,1.22-.51,.29-1.1,.43-1.77,.43-.76,0-1.43-.18-2.02-.53s-1.05-.86-1.38-1.51c-.32-.65-.49-1.4-.49-2.25s.16-1.6,.49-2.25,.79-1.16,1.38-1.52,1.26-.54,2.01-.54c.66,0,1.24,.14,1.75,.43,.5,.29,.88,.69,1.14,1.21v-1.42h1.77Zm-2.43,6.21c.43-.51,.66-1.21,.66-2.11s-.22-1.59-.65-2.1c-.43-.51-1.04-.77-1.82-.77s-1.39,.26-1.84,.76-.66,1.21-.66,2.11,.22,1.6,.67,2.11,1.06,.76,1.83,.76,1.37-.25,1.81-.76Z"></path>
        <path class="cls-2" d="M318.23,23.72l-1.08,.11c-.85,.08-1.46,.34-1.84,.78-.37,.44-.56,.99-.56,1.67v4.81h-1.79v-8.66h1.74v1.51c.46-1.02,1.4-1.58,2.82-1.69l.59-.04,.12,1.51Z"></path>
        <path class="cls-2" d="M325.61,23.08c.56,.58,.84,1.46,.84,2.64v5.36h-1.72v-1.44c-.23,.51-.56,.89-1,1.16-.44,.27-.96,.4-1.55,.4s-1.09-.11-1.56-.35c-.47-.23-.84-.55-1.11-.97-.26-.41-.4-.87-.4-1.38,0-.63,.16-1.12,.49-1.48,.33-.36,.86-.62,1.62-.77,.75-.15,1.78-.23,3.1-.23h.41v-.52c0-.66-.14-1.14-.42-1.44s-.73-.44-1.36-.44c-.98,0-1.96,.3-2.95,.91l-.53-1.26c.46-.32,1.02-.58,1.68-.77,.66-.2,1.29-.29,1.89-.29,1.16,0,2.02,.29,2.58,.87Zm-1.52,6.13c.41-.44,.62-1.01,.62-1.71v-.46h-.32c-.92,0-1.63,.04-2.13,.12-.5,.08-.85,.22-1.06,.42s-.32,.48-.32,.84c0,.41,.15,.76,.45,1.04,.3,.28,.69,.42,1.16,.42,.65,0,1.18-.22,1.6-.66Z"></path>
        <path class="cls-2" d="M341.74,25.71v5.38h-1.79v-5.3c0-.73-.13-1.27-.38-1.61s-.66-.51-1.23-.51c-.65,0-1.16,.22-1.54,.67-.38,.45-.57,1.06-.57,1.84v4.9h-1.79v-5.3c0-.73-.13-1.27-.39-1.61-.26-.34-.67-.51-1.23-.51-.66,0-1.18,.22-1.56,.67-.38,.45-.57,1.06-.57,1.84v4.9h-1.79v-8.66h1.76v1.31c.27-.49,.64-.86,1.1-1.13s.99-.4,1.58-.4c1.34,0,2.21,.56,2.61,1.67,.27-.52,.66-.93,1.17-1.22,.51-.3,1.08-.44,1.72-.44,1.94,0,2.91,1.17,2.91,3.5Z"></path>
        <path class="cls-2" d="M357.03,25.71v5.38h-1.79v-5.3c0-.73-.13-1.27-.38-1.61s-.66-.51-1.23-.51c-.65,0-1.16,.22-1.54,.67-.38,.45-.57,1.06-.57,1.84v4.9h-1.79v-5.3c0-.73-.13-1.27-.39-1.61-.26-.34-.67-.51-1.23-.51-.66,0-1.18,.22-1.56,.67-.38,.45-.57,1.06-.57,1.84v4.9h-1.79v-8.66h1.76v1.31c.27-.49,.64-.86,1.1-1.13s.99-.4,1.58-.4c1.34,0,2.21,.56,2.61,1.67,.27-.52,.66-.93,1.17-1.22,.51-.3,1.08-.44,1.72-.44,1.94,0,2.91,1.17,2.91,3.5Z"></path>
        <path class="cls-2" d="M366.9,27.06h-6.12c.13,1.83,1.04,2.75,2.73,2.75,.99,0,1.89-.32,2.7-.98l.55,1.26c-.4,.34-.9,.62-1.49,.82-.59,.2-1.19,.3-1.81,.3-1.38,0-2.48-.4-3.27-1.19-.8-.79-1.2-1.89-1.2-3.28,0-.89,.17-1.67,.52-2.36,.35-.69,.84-1.22,1.47-1.6,.63-.38,1.35-.57,2.15-.57,1.17,0,2.09,.38,2.76,1.14s1,1.8,1,3.14v.57Zm-5.36-2.88c-.41,.43-.66,1.05-.74,1.85h4.56c-.03-.8-.24-1.42-.61-1.85s-.89-.65-1.57-.65-1.23,.22-1.64,.65Z"></path>
        <path class="cls-2" d="M274.57,36.62h2.06v1.86h-2.06v-1.86Zm.12,12.53v-8.66h1.79v8.66h-1.79Z"></path>
        <path class="cls-2" d="M286.76,43.77v5.38h-1.79v-5.29c0-.73-.14-1.27-.43-1.61-.29-.34-.74-.51-1.36-.51-.72,0-1.3,.22-1.74,.67-.43,.45-.66,1.05-.66,1.81v4.93h-1.79v-8.66h1.76v1.38c.28-.52,.68-.92,1.19-1.19,.51-.27,1.08-.41,1.72-.41,2.07,0,3.11,1.17,3.11,3.5Z"></path>
        <path class="cls-2" d="M304.64,36.64h1.46v12.51h-1.65l.02-9.05-3.73,7.04h-1.24l-3.74-6.95,.02,8.96h-1.65v-12.51h1.47l4.54,8.66,4.5-8.66Z"></path>
        <path class="cls-2" d="M315.01,41.15c.56,.58,.84,1.46,.84,2.64v5.36h-1.72v-1.44c-.23,.51-.56,.89-1,1.16-.44,.27-.96,.4-1.55,.4s-1.09-.11-1.56-.35c-.47-.23-.84-.55-1.11-.97-.26-.41-.4-.87-.4-1.38,0-.63,.16-1.12,.49-1.48,.33-.36,.86-.62,1.62-.77,.75-.15,1.78-.23,3.1-.23h.41v-.52c0-.66-.14-1.14-.42-1.44s-.73-.44-1.36-.44c-.98,0-1.96,.3-2.95,.91l-.53-1.26c.46-.32,1.02-.58,1.68-.77,.66-.2,1.29-.29,1.89-.29,1.16,0,2.02,.29,2.58,.87Zm-1.52,6.13c.41-.44,.62-1.01,.62-1.71v-.46h-.32c-.92,0-1.63,.04-2.13,.12-.5,.08-.85,.22-1.06,.42s-.32,.48-.32,.84c0,.41,.15,.76,.45,1.04,.3,.28,.69,.42,1.16,.42,.65,0,1.18-.22,1.6-.66Z"></path>
        <path class="cls-2" d="M326.07,43.77v5.38h-1.79v-5.29c0-.73-.14-1.27-.43-1.61-.29-.34-.74-.51-1.36-.51-.72,0-1.3,.22-1.74,.67-.43,.45-.66,1.05-.66,1.81v4.93h-1.79v-8.66h1.76v1.38c.28-.52,.68-.92,1.19-1.19,.51-.27,1.08-.41,1.72-.41,2.07,0,3.11,1.17,3.11,3.5Z"></path>
        <path class="cls-2" d="M334.72,41.15c.56,.58,.84,1.46,.84,2.64v5.36h-1.72v-1.44c-.23,.51-.56,.89-1,1.16-.44,.27-.96,.4-1.55,.4s-1.09-.11-1.56-.35c-.47-.23-.84-.55-1.11-.97-.26-.41-.4-.87-.4-1.38,0-.63,.16-1.12,.49-1.48,.33-.36,.86-.62,1.62-.77,.75-.15,1.78-.23,3.1-.23h.41v-.52c0-.66-.14-1.14-.42-1.44s-.73-.44-1.36-.44c-.98,0-1.96,.3-2.95,.91l-.53-1.26c.46-.32,1.02-.58,1.68-.77,.66-.2,1.29-.29,1.89-.29,1.16,0,2.02,.29,2.58,.87Zm-1.52,6.13c.41-.44,.62-1.01,.62-1.71v-.46h-.32c-.92,0-1.63,.04-2.13,.12-.5,.08-.85,.22-1.06,.42s-.32,.48-.32,.84c0,.41,.15,.76,.45,1.04,.3,.28,.69,.42,1.16,.42,.65,0,1.18-.22,1.6-.66Z"></path>
        <path class="cls-2" d="M346.07,40.49v7.97c0,1.32-.35,2.32-1.06,3s-1.74,1.01-3.11,1.01c-.75,0-1.45-.1-2.12-.29-.67-.2-1.26-.48-1.78-.84l.55-1.29c.57,.37,1.12,.63,1.64,.79,.53,.16,1.09,.24,1.69,.24,1.62,0,2.43-.82,2.43-2.47v-1.37c-.25,.52-.63,.93-1.14,1.22-.51,.29-1.1,.43-1.77,.43-.76,0-1.43-.18-2.02-.53s-1.05-.86-1.38-1.51c-.32-.65-.49-1.4-.49-2.25s.16-1.6,.49-2.25,.79-1.16,1.38-1.52,1.26-.54,2.01-.54c.66,0,1.24,.14,1.75,.43,.5,.29,.88,.69,1.14,1.21v-1.42h1.77Zm-2.43,6.21c.43-.51,.66-1.21,.66-2.11s-.22-1.59-.65-2.1c-.43-.51-1.04-.77-1.82-.77s-1.39,.26-1.84,.76-.66,1.21-.66,2.11,.22,1.6,.67,2.11,1.06,.76,1.83,.76,1.37-.25,1.81-.76Z"></path>
        <path class="cls-2" d="M355.99,45.12h-6.12c.13,1.83,1.04,2.75,2.73,2.75,.99,0,1.89-.32,2.7-.98l.55,1.26c-.4,.34-.9,.62-1.49,.82-.59,.2-1.19,.3-1.81,.3-1.38,0-2.48-.4-3.27-1.19-.8-.79-1.2-1.89-1.2-3.28,0-.89,.17-1.67,.52-2.36,.35-.69,.84-1.22,1.47-1.6,.63-.38,1.35-.57,2.15-.57,1.17,0,2.09,.38,2.76,1.14s1,1.8,1,3.14v.57Zm-5.36-2.88c-.41,.43-.66,1.05-.74,1.85h4.56c-.03-.8-.24-1.42-.61-1.85s-.89-.65-1.57-.65-1.23,.22-1.64,.65Z"></path>
        <path class="cls-2" d="M370.8,43.77v5.38h-1.79v-5.3c0-.73-.13-1.27-.38-1.61s-.66-.51-1.23-.51c-.65,0-1.16,.22-1.54,.67-.38,.45-.57,1.06-.57,1.84v4.9h-1.79v-5.3c0-.73-.13-1.27-.39-1.61-.26-.34-.67-.51-1.23-.51-.66,0-1.18,.22-1.56,.67-.38,.45-.57,1.06-.57,1.84v4.9h-1.79v-8.66h1.76v1.31c.27-.49,.64-.86,1.1-1.13s.99-.4,1.58-.4c1.34,0,2.21,.56,2.61,1.67,.27-.52,.66-.93,1.17-1.22,.51-.3,1.08-.44,1.72-.44,1.94,0,2.91,1.17,2.91,3.5Z"></path>
        <path class="cls-2" d="M380.66,45.12h-6.12c.13,1.83,1.04,2.75,2.73,2.75,.99,0,1.89-.32,2.7-.98l.55,1.26c-.4,.34-.9,.62-1.49,.82-.59,.2-1.19,.3-1.81,.3-1.38,0-2.48-.4-3.27-1.19-.8-.79-1.2-1.89-1.2-3.28,0-.89,.17-1.67,.52-2.36,.35-.69,.84-1.22,1.47-1.6,.63-.38,1.35-.57,2.15-.57,1.17,0,2.09,.38,2.76,1.14s1,1.8,1,3.14v.57Zm-5.36-2.88c-.41,.43-.66,1.05-.74,1.85h4.56c-.03-.8-.24-1.42-.61-1.85s-.89-.65-1.57-.65-1.23,.22-1.64,.65Z"></path>
        <path class="cls-2" d="M390.4,43.77v5.38h-1.79v-5.29c0-.73-.14-1.27-.43-1.61-.29-.34-.74-.51-1.36-.51-.72,0-1.3,.22-1.74,.67-.43,.45-.66,1.05-.66,1.81v4.93h-1.79v-8.66h1.76v1.38c.28-.52,.68-.92,1.19-1.19,.51-.27,1.08-.41,1.72-.41,2.07,0,3.11,1.17,3.11,3.5Z"></path>
        <path class="cls-2" d="M397.75,47.83l-.09,1.37c-.3,.05-.6,.07-.92,.07-1.12,0-1.96-.28-2.51-.83-.55-.55-.83-1.35-.83-2.39v-4.19h-1.69v-1.38h1.69v-2.61h1.79v2.61h2.38v1.38h-2.38v4.12c0,1.27,.59,1.9,1.75,1.9,.27,0,.54-.02,.8-.05Z"></path>
      </g>
      <g>
        <path class="cls-2" d="M69.12,.55h20.26c5.18,0,9.2,1.27,12.07,3.81,2.87,2.54,4.3,6.15,4.3,10.82s-1.44,8.23-4.3,10.82c-2.87,2.59-6.89,3.88-12.07,3.88h-13.11v19.56h-7.14V.55Zm19.49,23.58c6.84,0,10.26-2.98,10.26-8.95s-3.42-8.88-10.26-8.88h-12.35V24.14h12.35Z"></path>
        <path class="cls-2" d="M153.67,23.51v23.03c-2.08,1.06-4.69,1.91-7.84,2.53s-6.33,.94-9.57,.94c-4.95,0-9.22-.99-12.83-2.98-3.6-1.99-6.36-4.85-8.25-8.6-1.9-3.75-2.85-8.23-2.85-13.45s.95-9.58,2.85-13.35c1.89-3.77,4.61-6.65,8.15-8.63s7.71-2.98,12.52-2.98c3.47,0,6.66,.51,9.57,1.53,2.91,1.02,5.39,2.5,7.42,4.44l-2.56,5.27c-2.31-1.89-4.61-3.26-6.87-4.09-2.27-.83-4.76-1.25-7.49-1.25-5.27,0-9.31,1.63-12.1,4.89-2.8,3.26-4.2,7.99-4.2,14.18s1.43,11.13,4.3,14.39c2.86,3.26,7.05,4.89,12.55,4.89,3.6,0,7.16-.53,10.68-1.6v-13.73h-11.37v-5.41h17.89Z"></path>
        <path class="cls-2" d="M164.49,.55h20.26c5.18,0,9.2,1.27,12.07,3.81,2.87,2.54,4.3,6.15,4.3,10.82s-1.44,8.23-4.3,10.82c-2.87,2.59-6.89,3.88-12.07,3.88h-13.11v19.56h-7.14V.55Zm19.49,23.58c6.84,0,10.26-2.98,10.26-8.95s-3.42-8.88-10.26-8.88h-12.35V24.14h12.35Z"></path>
        <path class="cls-2" d="M250.9,.55h5.69V49.45h-6.45l.07-35.37-14.57,27.53h-4.85l-14.64-27.19,.07,35.02h-6.45V.55h5.76l17.75,33.85L250.9,.55Z"></path>
      </g>
      <g>
        <path class="cls-2" d="M5.15,39.36c-.33,0-.64,.06-.95,.15-5.6-8.8,2.67-16.88,3.03-17.22l-1.57-1.65c-.1,.1-10.04,9.75-3.33,20.17-.43,.58-.69,1.29-.69,2.06,0,1.93,1.57,3.51,3.51,3.51s3.51-1.57,3.51-3.51-1.57-3.51-3.51-3.51Z"></path>
        <g>
          <path class="cls-1" d="M43.57,22.7v15.24c0,.36-.24,.66-.55,.69-2.23,.21-10.85,1.39-17.16,7.3-.21,.2-.52,.21-.74,.01-1.66-1.48-8.71-7.37-17.17-8.42-.3-.04-.53-.33-.53-.68v-14.77"></path>
          <path class="cls-2" d="M.63,17.66L24.73,3.14c.48-.29,1.06-.29,1.54,0l24.1,14.53c.59,.37,.59,1.31,0,1.69l-24.23,14.56c-.39,.24-.87,.24-1.27,0L.63,19.35c-.59-.37-.59-1.31,0-1.69Z"></path>
        </g>
      </g>
    </g>
  </g>
</svg>
